bicep_curl
version=1
nRows=545
nColumns=3
inDegrees=yes

# SIMM Motion File Header:
name bicep_curl
datacolumns 3
datarows 545
otherdata 1
range 0.0000 0.5440
endheader
time	/jointset/r_shoulder/r_shoulder_elev/value	/jointset/r_elbow/r_elbow_flex/value
0.0000	0.0000	43.8200
0.0010	0.0000	43.9402
0.0020	0.0000	44.0600
0.0030	0.0000	44.1796
0.0040	0.0000	44.2988
0.0050	0.0000	44.4178
0.0060	0.0000	44.5364
0.0070	0.0000	44.6547
0.0080	0.0000	44.7727
0.0090	0.0000	44.8904
0.0100	0.0000	45.0078
0.0110	0.0000	45.1249
0.0120	0.0000	45.2416
0.0130	0.0000	45.3581
0.0140	0.0000	45.4742
0.0150	0.0000	45.5901
0.0160	0.0000	45.7056
0.0170	0.0000	45.8208
0.0180	0.0000	45.9357
0.0190	0.0000	46.0503
0.0200	0.0000	46.1646
0.0210	0.0000	46.2785
0.0220	0.0000	46.3922
0.0230	0.0000	46.5055
0.0240	0.0000	46.6186
0.0250	0.0000	46.7313
0.0260	0.0000	46.8437
0.0270	0.0000	46.9558
0.0280	0.0000	47.0676
0.0290	0.0000	47.1791
0.0300	0.0000	47.2903
0.0310	0.0000	47.4012
0.0320	0.0000	47.5117
0.0330	0.0000	47.6220
0.0340	0.0000	47.7319
0.0350	0.0000	47.8415
0.0360	0.0000	47.9508
0.0370	0.0000	48.0598
0.0380	0.0000	48.1685
0.0390	0.0000	48.2769
0.0400	0.0000	48.3850
0.0410	0.0000	48.4928
0.0420	0.0000	48.6002
0.0430	0.0000	48.7073
0.0440	0.0000	48.8142
0.0450	0.0000	48.9207
0.0460	0.0000	49.0269
0.0470	0.0000	49.1328
0.0480	0.0000	49.2384
0.0490	0.0000	49.3437
0.0500	0.0000	49.4486
0.0510	0.0000	49.5533
0.0520	0.0000	49.6576
0.0530	0.0000	49.7617
0.0540	0.0000	49.8654
0.0550	0.0000	49.9688
0.0560	0.0000	50.0719
0.0570	0.0000	50.1747
0.0580	0.0000	50.2772
0.0590	0.0000	50.3794
0.0600	0.0000	50.4813
0.0610	0.0000	50.5828
0.0620	0.0000	50.6840
0.0630	0.0000	50.7850
0.0640	0.0000	50.8856
0.0650	0.0000	50.9859
0.0660	0.0000	51.0859
0.0670	0.0000	51.1856
0.0680	0.0000	51.2850
0.0690	0.0000	51.3841
0.0700	0.0000	51.4828
0.0710	0.0000	51.5813
0.0720	0.0000	51.6794
0.0730	0.0000	51.7772
0.0740	0.0000	51.8748
0.0750	0.0000	51.9720
0.0760	0.0000	52.0689
0.0770	0.0000	52.1655
0.0780	0.0000	52.2617
0.0790	0.0000	52.3577
0.0800	0.0000	52.4534
0.0810	0.0000	52.5487
0.0820	0.0000	52.6437
0.0830	0.0000	52.7385
0.0840	0.0000	52.8329
0.0850	0.0000	52.9270
0.0860	0.0000	53.0208
0.0870	0.0000	53.1143
0.0880	0.0000	53.2074
0.0890	0.0000	53.3003
0.0900	0.0000	53.3929
0.0910	0.0000	53.4851
0.0920	0.0000	53.5770
0.0930	0.0000	53.6687
0.0940	0.0000	53.7600
0.0950	0.0000	53.8510
0.0960	0.0000	53.9417
0.0970	0.0000	54.0320
0.0980	0.0000	54.1221
0.0990	0.0000	54.2119
0.1000	0.0000	54.3013
0.1010	0.0000	54.3905
0.1020	0.0000	54.4793
0.1030	0.0000	54.5678
0.1040	0.0000	54.6560
0.1050	0.0000	54.7439
0.1060	0.0000	54.8315
0.1070	0.0000	54.9188
0.1080	0.0000	55.0057
0.1090	0.0000	55.0924
0.1100	0.0000	55.1787
0.1110	0.0000	55.2648
0.1120	0.0000	55.3505
0.1130	0.0000	55.4359
0.1140	0.0000	55.5210
0.1150	0.0000	55.6058
0.1160	0.0000	55.6903
0.1170	0.0000	55.7745
0.1180	0.0000	55.8583
0.1190	0.0000	55.9419
0.1200	0.0000	56.0251
0.1210	0.0000	56.1080
0.1220	0.0000	56.1907
0.1230	0.0000	56.2730
0.1240	0.0000	56.3550
0.1250	0.0000	56.4367
0.1260	0.0000	56.5180
0.1270	0.0000	56.5991
0.1280	0.0000	56.6799
0.1290	0.0000	56.7603
0.1300	0.0000	56.8405
0.1310	0.0000	56.9203
0.1320	0.0000	56.9998
0.1330	0.0000	57.0790
0.1340	0.0000	57.1579
0.1350	0.0000	57.2365
0.1360	0.0000	57.3148
0.1370	0.0000	57.3927
0.1380	0.0000	57.4704
0.1390	0.0000	57.5477
0.1400	0.0000	57.6248
0.1410	0.0000	57.7015
0.1420	0.0000	57.7779
0.1430	0.0000	57.8540
0.1440	0.0000	57.9298
0.1450	0.0000	58.0053
0.1460	0.0000	58.0805
0.1470	0.0000	58.1553
0.1480	0.0000	58.2299
0.1490	0.0000	58.3041
0.1500	0.0000	58.3780
0.1510	0.0000	58.4517
0.1520	0.0000	58.5250
0.1530	0.0000	58.5980
0.1540	0.0000	58.6706
0.1550	0.0000	58.7430
0.1560	0.0000	58.8151
0.1570	0.0000	58.8869
0.1580	0.0000	58.9583
0.1590	0.0000	59.0294
0.1600	0.0000	59.1003
0.1610	0.0000	59.1708
0.1620	0.0000	59.2410
0.1630	0.0000	59.3109
0.1640	0.0000	59.3805
0.1650	0.0000	59.4497
0.1660	0.0000	59.5187
0.1670	0.0000	59.5874
0.1680	0.0000	59.6557
0.1690	0.0000	59.7237
0.1700	0.0000	59.7914
0.1710	0.0000	59.8589
0.1720	0.0000	59.9260
0.1730	0.0000	59.9928
0.1740	0.0000	60.0592
0.1750	0.0000	60.1254
0.1760	0.0000	60.1913
0.1770	0.0000	60.2568
0.1780	0.0000	60.3221
0.1790	0.0000	60.3870
0.1800	0.0000	60.4516
0.1810	0.0000	60.5159
0.1820	0.0000	60.5799
0.1830	0.0000	60.6436
0.1840	0.0000	60.7070
0.1850	0.0000	60.7700
0.1860	0.0000	60.8328
0.1870	0.0000	60.8952
0.1880	0.0000	60.9574
0.1890	0.0000	61.0192
0.1900	0.0000	61.0807
0.1910	0.0000	61.1419
0.1920	0.0000	61.2028
0.1930	0.0000	61.2634
0.1940	0.0000	61.3237
0.1950	0.0000	61.3836
0.1960	0.0000	61.4433
0.1970	0.0000	61.5026
0.1980	0.0000	61.5617
0.1990	0.0000	61.6204
0.2000	0.0000	61.6788
0.2010	0.0000	61.7369
0.2020	0.0000	61.7947
0.2030	0.0000	61.8522
0.2040	0.0000	61.9093
0.2050	0.0000	61.9662
0.2060	0.0000	62.0227
0.2070	0.0000	62.0790
0.2080	0.0000	62.1349
0.2090	0.0000	62.1905
0.2100	0.0000	62.2458
0.2110	0.0000	62.3008
0.2120	0.0000	62.3555
0.2130	0.0000	62.4099
0.2140	0.0000	62.4639
0.2150	0.0000	62.5177
0.2160	0.0000	62.5711
0.2170	0.0000	62.6243
0.2180	0.0000	62.6771
0.2190	0.0000	62.7296
0.2200	0.0000	62.7818
0.2210	0.0000	62.8337
0.2220	0.0000	62.8853
0.2230	0.0000	62.9366
0.2240	0.0000	62.9875
0.2250	0.0000	63.0382
0.2260	0.0000	63.0885
0.2270	0.0000	63.1385
0.2280	0.0000	63.1883
0.2290	0.0000	63.2377
0.2300	0.0000	63.2868
0.2310	0.0000	63.3356
0.2320	0.0000	63.3840
0.2330	0.0000	63.4322
0.2340	0.0000	63.4801
0.2350	0.0000	63.5276
0.2360	0.0000	63.5749
0.2370	0.0000	63.6218
0.2380	0.0000	63.6684
0.2390	0.0000	63.7147
0.2400	0.0000	63.7607
0.2410	0.0000	63.8064
0.2420	0.0000	63.8518
0.2430	0.0000	63.8968
0.2440	0.0000	63.9416
0.2450	0.0000	63.9860
0.2460	0.0000	64.0301
0.2470	0.0000	64.0740
0.2480	0.0000	64.1175
0.2490	0.0000	64.1607
0.2500	0.0000	64.2036
0.2510	0.0000	64.2462
0.2520	0.0000	64.2884
0.2530	0.0000	64.3304
0.2540	0.0000	64.3720
0.2550	0.0000	64.4134
0.2560	0.0000	64.4544
0.2570	0.0000	64.4951
0.2580	0.0000	64.5355
0.2590	0.0000	64.5756
0.2600	0.0000	64.6154
0.2610	0.0000	64.6549
0.2620	0.0000	64.6941
0.2630	0.0000	64.7329
0.2640	0.0000	64.7715
0.2650	0.0000	64.8097
0.2660	0.0000	64.8476
0.2670	0.0000	64.8852
0.2680	0.0000	64.9225
0.2690	0.0000	64.9595
0.2700	0.0000	64.9962
0.2710	0.0000	65.0326
0.2720	0.0000	65.0687
0.2730	0.0000	65.1044
0.2740	0.0000	65.1399
0.2750	0.0000	65.1750
0.2760	0.0000	65.2098
0.2770	0.0000	65.2443
0.2780	0.0000	65.2785
0.2790	0.0000	65.3124
0.2800	0.0000	65.3460
0.2810	0.0000	65.3793
0.2820	0.0000	65.4122
0.2830	0.0000	65.4449
0.2840	0.0000	65.4772
0.2850	0.0000	65.5092
0.2860	0.0000	65.5410
0.2870	0.0000	65.5724
0.2880	0.0000	65.6035
0.2890	0.0000	65.6342
0.2900	0.0000	65.6647
0.2910	0.0000	65.6949
0.2920	0.0000	65.7247
0.2930	0.0000	65.7543
0.2940	0.0000	65.7835
0.2950	0.0000	65.8124
0.2960	0.0000	65.8411
0.2970	0.0000	65.8694
0.2980	0.0000	65.8974
0.2990	0.0000	65.9250
0.3000	0.0000	65.9524
0.3010	0.0000	65.9795
0.3020	0.0000	66.0062
0.3030	0.0000	66.0327
0.3040	0.0000	66.0588
0.3050	0.0000	66.0846
0.3060	0.0000	66.1101
0.3070	0.0000	66.1353
0.3080	0.0000	66.1602
0.3090	0.0000	66.1848
0.3100	0.0000	66.2091
0.3110	0.0000	66.2330
0.3120	0.0000	66.2567
0.3130	0.0000	66.2800
0.3140	0.0000	66.3030
0.3150	0.0000	66.3257
0.3160	0.0000	66.3481
0.3170	0.0000	66.3702
0.3180	0.0000	66.3920
0.3190	0.0000	66.4135
0.3200	0.0000	66.4347
0.3210	0.0000	66.4555
0.3220	0.0000	66.4761
0.3230	0.0000	66.4963
0.3240	0.0000	66.5162
0.3250	0.0000	66.5358
0.3260	0.0000	66.5551
0.3270	0.0000	66.5741
0.3280	0.0000	66.5928
0.3290	0.0000	66.6112
0.3300	0.0000	66.6292
0.3310	0.0000	66.6470
0.3320	0.0000	66.6644
0.3330	0.0000	66.6816
0.3340	0.0000	66.6984
0.3350	0.0000	66.7149
0.3360	0.0000	66.7311
0.3370	0.0000	66.7470
0.3380	0.0000	66.7626
0.3390	0.0000	66.7778
0.3400	0.0000	66.7928
0.3410	0.0000	66.8074
0.3420	0.0000	66.8218
0.3430	0.0000	66.8358
0.3440	0.0000	66.8495
0.3450	0.0000	66.8629
0.3460	0.0000	66.8760
0.3470	0.0000	66.8888
0.3480	0.0000	66.9013
0.3490	0.0000	66.9134
0.3500	0.0000	66.9253
0.3510	0.0000	66.9368
0.3520	0.0000	66.9480
0.3530	0.0000	66.9590
0.3540	0.0000	66.9696
0.3550	0.0000	66.9799
0.3560	0.0000	66.9899
0.3570	0.0000	66.9996
0.3580	0.0000	67.0089
0.3590	0.0000	67.0180
0.3600	0.0000	67.0267
0.3610	0.0000	67.0352
0.3620	0.0000	67.0433
0.3630	0.0000	67.0511
0.3640	0.0000	67.0586
0.3650	0.0000	67.0658
0.3660	0.0000	67.0727
0.3670	0.0000	67.0793
0.3680	0.0000	67.0856
0.3690	0.0000	67.0915
0.3700	0.0000	67.0972
0.3710	0.0000	67.1025
0.3720	0.0000	67.1075
0.3730	0.0000	67.1122
0.3740	0.0000	67.1166
0.3750	0.0000	67.1207
0.3760	0.0000	67.1245
0.3770	0.0000	67.1280
0.3780	0.0000	67.1311
0.3790	0.0000	67.1340
0.3800	0.0000	67.1365
0.3810	0.0000	67.1388
0.3820	0.0000	67.1407
0.3830	0.0000	67.1423
0.3840	0.0000	67.1436
0.3850	0.0000	67.1446
0.3860	0.0000	67.1453
0.3870	0.0000	67.1456
0.3880	0.0000	67.1457
0.3890	0.0000	67.1454
0.3900	0.0000	67.1449
0.3910	0.0000	67.1440
0.3920	0.0000	67.1428
0.3930	0.0000	67.1413
0.3940	0.0000	67.1395
0.3950	0.0000	67.1374
0.3960	0.0000	67.1350
0.3970	0.0000	67.1322
0.3980	0.0000	67.1292
0.3990	0.0000	67.1258
0.4000	0.0000	67.1222
0.4010	0.0000	67.1182
0.4020	0.0000	67.1139
0.4030	0.0000	67.1093
0.4040	0.0000	67.1044
0.4050	0.0000	67.0992
0.4060	0.0000	67.0937
0.4070	0.0000	67.0878
0.4080	0.0000	67.0817
0.4090	0.0000	67.0752
0.4100	0.0000	67.0684
0.4110	0.0000	67.0614
0.4120	0.0000	67.0540
0.4130	0.0000	67.0463
0.4140	0.0000	67.0383
0.4150	0.0000	67.0299
0.4160	0.0000	67.0213
0.4170	0.0000	67.0124
0.4180	0.0000	67.0031
0.4190	0.0000	66.9935
0.4200	0.0000	66.9837
0.4210	0.0000	66.9735
0.4220	0.0000	66.9630
0.4230	0.0000	66.9522
0.4240	0.0000	66.9411
0.4250	0.0000	66.9296
0.4260	0.0000	66.9179
0.4270	0.0000	66.9059
0.4280	0.0000	66.8935
0.4290	0.0000	66.8808
0.4300	0.0000	66.8679
0.4310	0.0000	66.8546
0.4320	0.0000	66.8410
0.4330	0.0000	66.8271
0.4340	0.0000	66.8128
0.4350	0.0000	66.7983
0.4360	0.0000	66.7835
0.4370	0.0000	66.7683
0.4380	0.0000	66.7529
0.4390	0.0000	66.7371
0.4400	0.0000	66.7210
0.4410	0.0000	66.7046
0.4420	0.0000	66.6879
0.4430	0.0000	66.6709
0.4440	0.0000	66.6536
0.4450	0.0000	66.6359
0.4460	0.0000	66.6180
0.4470	0.0000	66.5997
0.4480	0.0000	66.5812
0.4490	0.0000	66.5623
0.4500	0.0000	66.5431
0.4510	0.0000	66.5236
0.4520	0.0000	66.5038
0.4530	0.0000	66.4837
0.4540	0.0000	66.4633
0.4550	0.0000	66.4425
0.4560	0.0000	66.4215
0.4570	0.0000	66.4001
0.4580	0.0000	66.3785
0.4590	0.0000	66.3565
0.4600	0.0000	66.3342
0.4610	0.0000	66.3116
0.4620	0.0000	66.2887
0.4630	0.0000	66.2655
0.4640	0.0000	66.2419
0.4650	0.0000	66.2181
0.4660	0.0000	66.1939
0.4670	0.0000	66.1695
0.4680	0.0000	66.1447
0.4690	0.0000	66.1196
0.4700	0.0000	66.0942
0.4710	0.0000	66.0685
0.4720	0.0000	66.0425
0.4730	0.0000	66.0162
0.4740	0.0000	65.9896
0.4750	0.0000	65.9626
0.4760	0.0000	65.9354
0.4770	0.0000	65.9078
0.4780	0.0000	65.8799
0.4790	0.0000	65.8517
0.4800	0.0000	65.8232
0.4810	0.0000	65.7944
0.4820	0.0000	65.7653
0.4830	0.0000	65.7359
0.4840	0.0000	65.7061
0.4850	0.0000	65.6761
0.4860	0.0000	65.6457
0.4870	0.0000	65.6151
0.4880	0.0000	65.5841
0.4890	0.0000	65.5528
0.4900	0.0000	65.5212
0.4910	0.0000	65.4893
0.4920	0.0000	65.4571
0.4930	0.0000	65.4245
0.4940	0.0000	65.3917
0.4950	0.0000	65.3585
0.4960	0.0000	65.3251
0.4970	0.0000	65.2913
0.4980	0.0000	65.2572
0.4990	0.0000	65.2228
0.5000	0.0000	65.1881
0.5010	0.0000	65.1531
0.5020	0.0000	65.1178
0.5030	0.0000	65.0821
0.5040	0.0000	65.0462
0.5050	0.0000	65.0099
0.5060	0.0000	64.9734
0.5070	0.0000	64.9365
0.5080	0.0000	64.8993
0.5090	0.0000	64.8618
0.5100	0.0000	64.8240
0.5110	0.0000	64.7859
0.5120	0.0000	64.7474
0.5130	0.0000	64.7087
0.5140	0.0000	64.6696
0.5150	0.0000	64.6303
0.5160	0.0000	64.5906
0.5170	0.0000	64.5506
0.5180	0.0000	64.5103
0.5190	0.0000	64.4697
0.5200	0.0000	64.4288
0.5210	0.0000	64.3876
0.5220	0.0000	64.3461
0.5230	0.0000	64.3042
0.5240	0.0000	64.2621
0.5250	0.0000	64.2196
0.5260	0.0000	64.1768
0.5270	0.0000	64.1337
0.5280	0.0000	64.0904
0.5290	0.0000	64.0466
0.5300	0.0000	64.0026
0.5310	0.0000	63.9583
0.5320	0.0000	63.9137
0.5330	0.0000	63.8687
0.5340	0.0000	63.8235
0.5350	0.0000	63.7779
0.5360	0.0000	63.7320
0.5370	0.0000	63.6858
0.5380	0.0000	63.6393
0.5390	0.0000	63.5925
0.5400	0.0000	63.5454
0.5410	0.0000	63.4980
0.5420	0.0000	63.4502
0.5430	0.0000	63.4022
0.5440	0.0000	63.3538
